<?xml version="1.0" encoding="UTF-8" standalone="no"?>
<svg
   xmlns:sketch="http://www.bohemiancoding.com/sketch/ns"
   xmlns:dc="http://purl.org/dc/elements/1.1/"
   xmlns:cc="http://creativecommons.org/ns#"
   xmlns:rdf="http://www.w3.org/1999/02/22-rdf-syntax-ns#"
   xmlns:svg="http://www.w3.org/2000/svg"
   xmlns="http://www.w3.org/2000/svg"
   id="svg8"
   version="1.1"
   viewBox="0 0 64 64"
   height="64px"
   width="64px">
  <metadata
     id="metadata27">
    <rdf:RDF>
      <cc:Work
         rdf:about="">
        <dc:format>image/svg+xml</dc:format>
        <dc:type
           rdf:resource="http://purl.org/dc/dcmitype/StillImage" />
        <dc:title>numix-logo-line</dc:title>
      </cc:Work>
    </rdf:RDF>
  </metadata>
  <!-- Generator: Sketch 3.3.2 (12043) - http://www.bohemiancoding.com/sketch -->
  <title
     id="title10">numix-logo-line</title>
  <desc
     id="desc12">Created with Sketch.</desc>
  <defs
     id="defs14" />
  <g
     sketch:type="MSPage"
     fill-rule="evenodd"
     fill="none"
     stroke-width="1"
     stroke="none"
     id="Page-1">
    <g
       sketch:type="MSArtboardGroup"
       id="numix-logo-line">
      <g
         id="g18"
         sketch:type="MSLayerGroup">
        <path
           sketch:type="MSShapeGroup"
           stroke-width="2"
           stroke="#F1544D"
           id="lline"
           d="M63.0000002,32 C63.0000002,49.1208251 49.1208021,63.0000001 31.9999655,63.0000001 C14.8791288,63.0000001 0.999999531,49.1208251 0.999999531,32 C0.999999531,14.8791741 14.8791288,0.999999868 31.9999655,0.999999868 C49.1208021,0.999999868 63.0000002,14.8791741 63.0000002,32 L63.0000002,32 Z" />
        <g
           sketch:type="MSShapeGroup"
           transform="translate(19.000000, 18.000000)"
           id="n">
          <path
             fill="#F1544D"
             id="Shape"
             d="M2.000051,1 C1.476444,1.0071 0.991836,1.541845 1.000051,2 L1.000051,5.75 C1.499517,4.675704 2.190588,3.71028 3.000051,2.84375 L3.000051,2 C3.008451,1.53273 2.534073,0.992669 2.000051,1 L2.000051,1 Z" />
          <path
             stroke-width="2"
             stroke="#F1544D"
             id="path23"
             d="M2.000031,27.00002 L2.000031,11.32877 C2.000031,5.606617 6.906033,0.99998 13.00006,0.99998 L13.00006,0.99998 C19.094064,0.99998 24.000072,5.606617 24.000072,11.32877 L24.000072,27.00002" />
        </g>
      </g>
    </g>
  </g>
</svg>
