<?xml version="1.0" standalone="no"?><!DOCTYPE svg PUBLIC "-//W3C//DTD SVG 1.1//EN" "http://www.w3.org/Graphics/SVG/1.1/DTD/svg11.dtd"><svg width="200px" height="48px" version="1.1" xmlns="http://www.w3.org/2000/svg" xmlns:xlink="http://www.w3.org/1999/xlink" xml:space="preserve" style="fill-rule:evenodd;clip-rule:evenodd;stroke-linecap:round;stroke-linejoin:round;stroke-miterlimit:1.41421;"><g><g transform="matrix(1,0,0,1,0,-2)"><g transform="matrix(1,0,0,1,7.00005,-5.00001)"><path d="M21.0001,19c-0.523607,0.0071 -1.00821,0.541845 -1,1l0,3.75c0.499466,-1.0743 1.19054,-2.03972 2,-2.90625l0,-0.84375c0.0084,-0.46727 -0.465978,-1.00733 -1,-1Z" style="fill:#d64937;fill-rule:nonzero;"/></g><g transform="matrix(1,0,0,1,7.00005,-5.00001)"><path d="M21,45l0,-15.6713c0,-5.72215 4.906,-10.3288 11,-10.3288c6.094,0 11,4.60664 11,10.3288" style="fill:none;stroke-width:2px;stroke:#d64937;"/></g></g><g transform="matrix(1,0,0,-1,39,57)"><path d="M21,45l0,-15.6713c0,-5.72215 4.906,-10.3288 11,-10.3288c6.094,0 11,4.60664 11,10.3288" style="fill:none;stroke-width:2px;stroke:#d64937;"/></g><g transform="matrix(1,0,0,-1,117,56.9999)"><path d="M21,45" style="fill:none;stroke-width:2px;stroke:#d64937;"/></g><g transform="matrix(1,0,0,1,0,-2)"><g transform="matrix(0.707472,-0.706741,-0.706741,-0.707472,164.946,60.6779)"><path d="M21,45" style="fill:none;stroke-width:2px;stroke:#d64937;"/></g><g transform="matrix(0.707472,0.706741,-0.706741,0.707472,164.946,-6.67777)"><path d="M21,45" style="fill:none;stroke-width:2px;stroke:#d64937;"/></g></g><g transform="matrix(1,0,0,1,0,-2)"><g transform="matrix(0.81818,-1.11332e-16,-1.66998e-16,1,74.8182,-4.99997)"><path d="M21,45l0,-15.6713c0,-5.72215 4.906,-10.3288 11,-10.3288c3.09461,0 6.00498,1.08135 8.00001,3.00004c1.93364,1.85966 3,4.51238 3,7.32875" style="fill:none;stroke-width:2px;stroke:#d64937;"/></g><g transform="matrix(0.81818,-1.11332e-16,-1.66998e-16,1,92.8182,-4.99997)"><path d="M21,45l-2.03215e-12,-15.6713c0,-2.77167 1.12048,-5.47727 3.00004,-7.32875c2.00082,-1.97093 4.85776,-3.00004 7.99999,-3.00004c6.094,0 11,4.60664 11,10.3288" style="fill:none;stroke-width:2px;stroke:#d64937;"/></g></g></g></svg>