<?xml version="1.0" encoding="UTF-8" standalone="no"?>
<svg
   xmlns:sketch="http://www.bohemiancoding.com/sketch/ns"
   xmlns:dc="http://purl.org/dc/elements/1.1/"
   xmlns:cc="http://creativecommons.org/ns#"
   xmlns:rdf="http://www.w3.org/1999/02/22-rdf-syntax-ns#"
   xmlns:svg="http://www.w3.org/2000/svg"
   xmlns="http://www.w3.org/2000/svg"
   width="64px"
   height="64px"
   viewBox="0 0 64 64"
   version="1.1"
   id="svg8">
  <metadata
     id="metadata27">
    <rdf:RDF>
      <cc:Work
         rdf:about="">
        <dc:format>image/svg+xml</dc:format>
        <dc:type
           rdf:resource="http://purl.org/dc/dcmitype/StillImage" />
        <dc:title>numix-logo-line</dc:title>
      </cc:Work>
    </rdf:RDF>
  </metadata>
  <!-- Generator: Sketch 3.3.2 (12043) - http://www.bohemiancoding.com/sketch -->
  <title
     id="title10">numix-logo-line</title>
  <desc
     id="desc12">Created with Sketch.</desc>
  <defs
     id="defs14" />
  <g
     id="Page-1"
     stroke="none"
     stroke-width="1"
     fill="none"
     fill-rule="evenodd"
     sketch:type="MSPage">
    <g
       id="numix-logo-line"
       sketch:type="MSArtboardGroup">
      <g
         sketch:type="MSLayerGroup"
         id="g18">
        <path
           id="lline"
           d="M 32,0 C 14.338723,0 0,14.338736 0,32 0,49.661264 14.338723,64 32,64 49.661277,64 64,49.661266 64,32 l 0,-1 -0.101562,0 C 63.357083,13.811723 49.318732,0 32,0 Z m 0,2 C 48.580397,2 62,15.419615 62,32 62,48.580384 48.580397,62 32,62 15.419603,62 2,48.580387 2,32 2,15.419613 15.419603,2 32,2 Z"
           style="color:#000000;font-style:normal;font-variant:normal;font-weight:normal;font-stretch:normal;font-size:medium;line-height:normal;font-family:sans-serif;text-indent:0;text-align:start;text-decoration:none;text-decoration-line:none;text-decoration-style:solid;text-decoration-color:#000000;letter-spacing:normal;word-spacing:normal;text-transform:none;direction:ltr;block-progression:tb;writing-mode:lr-tb;baseline-shift:baseline;text-anchor:start;white-space:normal;shape-padding:0;clip-rule:nonzero;display:inline;overflow:visible;visibility:visible;opacity:1;isolation:auto;mix-blend-mode:normal;color-interpolation:sRGB;color-interpolation-filters:linearRGB;solid-color:#000000;solid-opacity:1;fill:#f1544d;fill-opacity:1;fill-rule:nonzero;stroke:none;stroke-width:2;stroke-linecap:butt;stroke-linejoin:miter;stroke-miterlimit:4;stroke-dasharray:none;stroke-dashoffset:0;stroke-opacity:1;color-rendering:auto;image-rendering:auto;shape-rendering:auto;text-rendering:auto;enable-background:accumulate" />
        <g
           id="n"
           transform="translate(19.000000, 18.000000)"
           sketch:type="MSShapeGroup">
          <path
             d="M2.000051,1 C1.476444,1.0071 0.991836,1.541845 1.000051,2 L1.000051,5.75 C1.499517,4.675704 2.190588,3.71028 3.000051,2.84375 L3.000051,2 C3.008451,1.53273 2.534073,0.992669 2.000051,1 L2.000051,1 Z"
             id="Shape"
             fill="#F1544D" />
          <path
             id="path23"
             d="M 13,0 C 6.4020219,0 1,5.034392 1,11.328125 L 1,27 3,27 3,11.328125 C 3,6.177552 7.4099241,2 13,2 18.590051,2 23,6.1775527 23,11.328125 L 23,27 25,27 25,11.328125 C 25,5.0343913 19.597957,0 13,0 Z"
             style="color:#000000;font-style:normal;font-variant:normal;font-weight:normal;font-stretch:normal;font-size:medium;line-height:normal;font-family:sans-serif;text-indent:0;text-align:start;text-decoration:none;text-decoration-line:none;text-decoration-style:solid;text-decoration-color:#000000;letter-spacing:normal;word-spacing:normal;text-transform:none;direction:ltr;block-progression:tb;writing-mode:lr-tb;baseline-shift:baseline;text-anchor:start;white-space:normal;shape-padding:0;clip-rule:nonzero;display:inline;overflow:visible;visibility:visible;opacity:1;isolation:auto;mix-blend-mode:normal;color-interpolation:sRGB;color-interpolation-filters:linearRGB;solid-color:#000000;solid-opacity:1;fill:#f1544d;fill-opacity:1;fill-rule:nonzero;stroke:none;stroke-width:2;stroke-linecap:butt;stroke-linejoin:miter;stroke-miterlimit:4;stroke-dasharray:none;stroke-dashoffset:0;stroke-opacity:1;color-rendering:auto;image-rendering:auto;shape-rendering:auto;text-rendering:auto;enable-background:accumulate" />
        </g>
      </g>
    </g>
  </g>
</svg>
