<svg xmlns="http://www.w3.org/2000/svg" width="64" viewBox="0 0 64 64" height="64">
 <g transform="matrix(0.25361913,0,0,0.25361906,-31.111388,-6.1999709)" fill="#d64937">
  <path d="m 375.01662,150.61948 c 0,69.68368 -56.48988,126.17348 -126.17359,126.17348 -69.68371,0 -126.17331,-56.4898 -126.17331,-126.17348 0,-69.683683 56.4896,-126.17348 126.17331,-126.17348 69.68371,0 126.17359,56.489797 126.17359,126.17348 z" color="#000000"/>
 </g>
 <path d="m 21.000051,19 c -0.523607,0.0071 -1.008215,0.541845 -1,1 l 0,3.75 c 0.499466,-1.074296 1.190537,-2.03972 2,-2.90625 l 0,-0.84375 c 0.0084,-0.46727 -0.465978,-1.007331 -1,-1 z" fill="#f9f9f9" color="#000000"/>
 <path d="M 32,18 C 25.402022,18 20,23.050017 20,29.34375 L 20,45 a 1.0001,1.0001 0 1 0 2,0 L 22,29.34375 C 22,24.193177 26.409924,20 32,20 c 5.590051,0 10,4.193178 10,9.34375 L 42,45 a 1.0001,1.0001 0 1 0 2,0 L 44,29.34375 C 44,23.050016 38.597957,18 32,18 z" color="#000000" fill="#f9f9f9"/>
</svg>
