<svg xmlns="http://www.w3.org/2000/svg" viewBox="0 0 3688.9272 1545.1978">
<g style="color:#000" transform="translate(0 -554.36212)">
<rect width="3688.927" x="0" y="1659.56" height="440" style="fill:#d64937"/>
<rect width="737.785" x="2213.356" y="554.362" height="552.599" style="fill:#1f1f21"/>
<path style="fill:#f9f9f9" d="m -15045.214,4061.1643 a 460.0506,460.0506 0 1 1 -920.101,0 460.0506,460.0506 0 1 1 920.101,0 z" transform="matrix(.27426 0 0 .27426 6834.6732 -379.63565)"/>
</g>
<g style="stroke:#f9f9f9;stroke-width:16;stroke-linecap:round;fill:none" transform="matrix(.27426 0 0 .27426 6830.6819 -906.57208)">
<g style="color:#000;stroke-linejoin:round">
<path d="m -15895.669,4821.3481 0,181.9501 c 0,66.4367 53.485,119.9218 119.922,119.9218 l 0,0 c 66.437,0 119.922,-53.4851 119.922,-119.9218 l 0,-181.9501"/>
<path d="m -15596.75,5123.2202 0,-181.9501 c 0,-66.4367 53.485,-119.9218 119.922,-119.9218 l 0,0 c 66.437,0 119.922,53.4851 119.922,119.9218 0,51.0011 0,102.0021 0,153.0032 0,16.0366 -12.91,28.9469 -28.947,28.9469 l 0,0 c -16.037,0 -28.947,-12.9103 -28.947,-28.9469 0,-51.0011 0,-102.0021 0,-153.0032 0,-66.4367 53.485,-119.9218 119.922,-119.9218 l 0,0 c 66.437,0 119.922,53.4851 119.922,119.9218 l 0,181.9501"/>
</g>
<path d="m -15115.881,4821.3483 0,301.8719"/>
<path d="m -14786.835,4821.3483 -269.971,301.8719 m 0,-301.8719 269.971,301.8719"/>
<path d="m -16194.588,4821.3481 0,35.1532 m 0,266.7187 0,-181.9501 c 0,-66.4367 53.485,-119.9218 119.922,-119.9218 l 0,0 c 66.437,0 119.922,53.4851 119.922,119.9218 l 0,181.9501"/>
</g>
<g transform="translate(0 -554.36212)">
<path style="fill:none;stroke:#d64937;stroke-linecap:round;stroke-width:7.197" d="m 2528.3095,666.27704 0,15.81148 m 0,119.96694 0,-81.83902 c 0,-29.88244 24.057,-53.9394 53.9395,-53.9394 l 0,0 c 29.8824,0 53.9394,24.05696 53.9394,53.9394 l 0,81.83902"/>
<g style="color:#000">
<g style="stroke:#1f1f21;stroke-linejoin:round;stroke-linecap:round">
<rect width="96" x="-516" y="540.362" height="96" style="fill:#d64937"/>
<rect width="96" x="-516" y="636.362" height="96" style="fill:#f9f9f9"/>
<rect width="96" x="-516" y="732.362" height="96" style="fill:#dedede"/>
<rect width="96" x="-516" y="828.362" height="96" style="fill:#2d2d2d"/>
</g>
<rect width="737.785" x="0" y="554.362" height="552.599" style="fill:#d64937"/>
<path style="fill:#f9f9f9" d="m -15045.214,4061.1643 c 0,254.0789 -205.972,460.0506 -460.051,460.0506 -254.079,0 -460.05,-205.9717 -460.05,-460.0506 0,-254.0789 205.971,-460.0506 460.05,-460.0506 254.079,0 460.051,205.9717 460.051,460.0506 z" transform="matrix(.27426 0 0 .27426 4621.3169 -379.63555)"/>
</g>
</g>
<g style="stroke:#f9f9f9;stroke-width:16;stroke-linecap:round;fill:none" transform="matrix(.27426 0 0 .27426 4617.3256 -906.57207)">
<g style="color:#000;stroke-linejoin:round">
<path d="m -15895.669,4821.3481 0,181.9501 c 0,66.4367 53.485,119.9218 119.922,119.9218 l 0,0 c 66.437,0 119.922,-53.4851 119.922,-119.9218 l 0,-181.9501"/>
<path d="m -15596.75,5123.2202 0,-181.9501 c 0,-66.4367 53.485,-119.9218 119.922,-119.9218 l 0,0 c 66.437,0 119.922,53.4851 119.922,119.9218 0,51.0011 0,102.0021 0,153.0032 0,16.0366 -12.91,28.9469 -28.947,28.9469 l 0,0 c -16.037,0 -28.947,-12.9103 -28.947,-28.9469 0,-51.0011 0,-102.0021 0,-153.0032 0,-66.4367 53.485,-119.9218 119.922,-119.9218 l 0,0 c 66.437,0 119.922,53.4851 119.922,119.9218 l 0,181.9501"/>
</g>
<path d="m -15115.881,4821.3483 0,301.8719"/>
<path d="m -14786.835,4821.3483 -269.971,301.8719 m 0,-301.8719 269.971,301.8719"/>
<path d="m -16194.588,4821.3481 0,35.1532 m 0,266.7187 0,-181.9501 c 0,-66.4367 53.485,-119.9218 119.922,-119.9218 l 0,0 c 66.437,0 119.922,53.4851 119.922,119.9218 l 0,181.9501"/>
</g>
<g transform="translate(0 -554.36212)">
<path style="fill:none;stroke:#d64937;stroke-linecap:round;stroke-width:7.197" d="m 314.95324,666.2771 0,15.81148 m 0,119.96694 0,-81.83902 c 0,-29.88244 24.057,-53.9394 53.9395,-53.9394 l 0,0 c 29.8824,0 53.9394,24.05696 53.9394,53.9394 l 0,81.83902"/>
<g style="color:#000">
<rect width="737.785" x="1475.571" y="554.362" height="552.599" style="fill:#dedede"/>
<path style="fill:#1f1f21" d="m -15045.214,4061.1643 c 0,254.0789 -205.972,460.0506 -460.051,460.0506 -254.079,0 -460.05,-205.9717 -460.05,-460.0506 0,-254.0789 205.971,-460.0506 460.05,-460.0506 254.079,0 460.051,205.9717 460.051,460.0506 z" transform="matrix(.27426 0 0 .27426 6096.8879 -379.63565)"/>
</g>
</g>
<g style="stroke:#1f1f21;stroke-width:16;stroke-linecap:round;fill:none" transform="matrix(.27426 0 0 .27426 6092.8966 -906.57208)">
<g style="color:#000;stroke-linejoin:round">
<path d="m -15895.669,4821.3481 0,181.9501 c 0,66.4367 53.485,119.9218 119.922,119.9218 l 0,0 c 66.437,0 119.922,-53.4851 119.922,-119.9218 l 0,-181.9501"/>
<path d="m -15596.75,5123.2202 0,-181.9501 c 0,-66.4367 53.485,-119.9218 119.922,-119.9218 l 0,0 c 66.437,0 119.922,53.4851 119.922,119.9218 0,51.0011 0,102.0021 0,153.0032 0,16.0366 -12.91,28.9469 -28.947,28.9469 l 0,0 c -16.037,0 -28.947,-12.9103 -28.947,-28.9469 0,-51.0011 0,-102.0021 0,-153.0032 0,-66.4367 53.485,-119.9218 119.922,-119.9218 l 0,0 c 66.437,0 119.922,53.4851 119.922,119.9218 l 0,181.9501"/>
</g>
<path d="m -15115.881,4821.3483 0,301.8719"/>
<path d="m -14786.835,4821.3483 -269.971,301.8719 m 0,-301.8719 269.971,301.8719"/>
<path d="m -16194.588,4821.3481 0,35.1532 m 0,266.7187 0,-181.9501 c 0,-66.4367 53.485,-119.9218 119.922,-119.9218 l 0,0 c 66.437,0 119.922,53.4851 119.922,119.9218 l 0,181.9501"/>
</g>
<g transform="translate(0 -554.36212)">
<path style="fill:none;stroke:#d64937;stroke-linecap:round;stroke-width:7.197" d="m 1790.5242,666.27704 0,15.81148 m 0,119.96694 0,-81.83902 c 0,-29.88244 24.057,-53.9394 53.9395,-53.9394 l 0,0 c 29.8824,0 53.9394,24.05696 53.9394,53.9394 l 0,81.83902"/>
<g style="color:#000">
<rect width="737.785" x="737.786" y="554.362" height="552.599" style="fill:#f9f9f9"/>
<path style="fill:#1f1f21" d="m -15045.214,4061.1643 a 460.0506,460.0506 0 1 1 -920.101,0 460.0506,460.0506 0 1 1 920.101,0 z" transform="matrix(.27426 0 0 .27426 5359.1025 -379.63565)"/>
</g>
</g>
<g style="stroke:#1f1f21;stroke-width:16;stroke-linecap:round;fill:none" transform="matrix(.27426 0 0 .27426 5355.1112 -906.57208)">
<g style="color:#000;stroke-linejoin:round">
<path d="m -15895.669,4821.3481 0,181.9501 c 0,66.4367 53.485,119.9218 119.922,119.9218 l 0,0 c 66.437,0 119.922,-53.4851 119.922,-119.9218 l 0,-181.9501"/>
<path d="m -15596.75,5123.2202 0,-181.9501 c 0,-66.4367 53.485,-119.9218 119.922,-119.9218 l 0,0 c 66.437,0 119.922,53.4851 119.922,119.9218 0,51.0011 0,102.0021 0,153.0032 0,16.0366 -12.91,28.9469 -28.947,28.9469 l 0,0 c -16.037,0 -28.947,-12.9103 -28.947,-28.9469 0,-51.0011 0,-102.0021 0,-153.0032 0,-66.4367 53.485,-119.9218 119.922,-119.9218 l 0,0 c 66.437,0 119.922,53.4851 119.922,119.9218 l 0,181.9501"/>
</g>
<path d="m -15115.881,4821.3483 0,301.8719"/>
<path d="m -14786.835,4821.3483 -269.971,301.8719 m 0,-301.8719 269.971,301.8719"/>
<path d="m -16194.588,4821.3481 0,35.1532 m 0,266.7187 0,-181.9501 c 0,-66.4367 53.485,-119.9218 119.922,-119.9218 l 0,0 c 66.437,0 119.922,53.4851 119.922,119.9218 l 0,181.9501"/>
</g>
<g transform="translate(0 -554.36212)">
<path style="fill:none;stroke:#d64937;stroke-linecap:round;stroke-width:7.197" d="m 1052.7388,666.27704 0,15.81148 m 0,119.96694 0,-81.83902 c 0,-29.88244 24.057,-53.9394 53.9395,-53.9394 l 0,0 c 29.8824,0 53.9394,24.05696 53.9394,53.9394 l 0,81.83902"/>
<g style="color:#000">
<rect width="737.785" x="2951.142" y="554.362" height="552.599" style="fill:#d64937"/>
<path style="fill:none;stroke:#f9f9f9;stroke-width:21.877" d="m -15045.214,4061.1643 c 0,254.0789 -205.972,460.0506 -460.051,460.0506 -254.079,0 -460.05,-205.9717 -460.05,-460.0506 0,-254.0789 205.971,-460.0506 460.05,-460.0506 254.079,0 460.051,205.9717 460.051,460.0506 z" transform="matrix(.27426 0 0 .27426 7572.4588 -379.63565)"/>
</g>
</g>
<g style="stroke:#f9f9f9;stroke-width:16;stroke-linecap:round;fill:none" transform="matrix(.27426 0 0 .27426 7568.4675 -906.57208)">
<g style="color:#000;stroke-linejoin:round">
<path d="m -15895.669,4821.3481 0,181.9501 c 0,66.4367 53.485,119.9218 119.922,119.9218 l 0,0 c 66.437,0 119.922,-53.4851 119.922,-119.9218 l 0,-181.9501"/>
<path d="m -15596.75,5123.2202 0,-181.9501 c 0,-66.4367 53.485,-119.9218 119.922,-119.9218 l 0,0 c 66.437,0 119.922,53.4851 119.922,119.9218 0,51.0011 0,102.0021 0,153.0032 0,16.0366 -12.91,28.9469 -28.947,28.9469 l 0,0 c -16.037,0 -28.947,-12.9103 -28.947,-28.9469 0,-51.0011 0,-102.0021 0,-153.0032 0,-66.4367 53.485,-119.9218 119.922,-119.9218 l 0,0 c 66.437,0 119.922,53.4851 119.922,119.9218 l 0,181.9501"/>
</g>
<path d="m -15115.881,4821.3483 0,301.8719"/>
<path d="m -14786.835,4821.3483 -269.971,301.8719 m 0,-301.8719 269.971,301.8719"/>
<path d="m -16194.588,4821.3481 0,35.1532 m 0,266.7187 0,-181.9501 c 0,-66.4367 53.485,-119.9218 119.922,-119.9218 l 0,0 c 66.437,0 119.922,53.4851 119.922,119.9218 l 0,181.9501"/>
</g>
<g transform="translate(0 -554.36212)">
<path style="fill:none;stroke:#f9f9f9;stroke-linecap:round;stroke-width:7.197" d="m 3266.0951,666.27704 0,15.81148 m 0,119.96694 0,-81.83902 c 0,-29.88244 24.057,-53.9394 53.9395,-53.9394 l 0,0 c 29.8824,0 53.9394,24.05696 53.9394,53.9394 l 0,81.83902"/>
<rect width="737.785" x="2213.356" y="1106.961" height="552.599" style="fill:#1f1f21;color:#000"/>
</g>
<g style="stroke:#f9f9f9;stroke-width:16;stroke-linecap:round;fill:none" transform="matrix(.27426 0 0 .27426 6830.6819 -534.78446)">
<g style="color:#000;stroke-linejoin:round">
<path d="m -15895.669,4821.3481 0,181.9501 c 0,66.4367 53.485,119.9218 119.922,119.9218 l 0,0 c 66.437,0 119.922,-53.4851 119.922,-119.9218 l 0,-181.9501"/>
<path d="m -15596.75,5123.2202 0,-181.9501 c 0,-66.4367 53.485,-119.9218 119.922,-119.9218 l 0,0 c 66.437,0 119.922,53.4851 119.922,119.9218 0,51.0011 0,102.0021 0,153.0032 0,16.0366 -12.91,28.9469 -28.947,28.9469 l 0,0 c -16.037,0 -28.947,-12.9103 -28.947,-28.9469 0,-51.0011 0,-102.0021 0,-153.0032 0,-66.4367 53.485,-119.9218 119.922,-119.9218 l 0,0 c 66.437,0 119.922,53.4851 119.922,119.9218 l 0,181.9501"/>
</g>
<path d="m -15115.881,4821.3483 0,301.8719"/>
<path d="m -14786.835,4821.3483 -269.971,301.8719 m 0,-301.8719 269.971,301.8719"/>
<path d="m -16194.588,4821.3481 0,35.1532 m 0,266.7187 0,-181.9501 c 0,-66.4367 53.485,-119.9218 119.922,-119.9218 l 0,0 c 66.437,0 119.922,53.4851 119.922,119.9218 l 0,181.9501"/>
</g>
<g transform="translate(0 -554.36212)">
<rect width="737.785" x="0" y="1106.961" height="552.599" style="fill:#d64937;color:#000"/>
</g>
<g style="stroke:#f9f9f9;stroke-width:16;stroke-linecap:round;fill:none" transform="matrix(.27426 0 0 .27426 4617.3256 -534.78437)">
<g style="color:#000;stroke-linejoin:round">
<path d="m -15895.669,4821.3481 0,181.9501 c 0,66.4367 53.485,119.9218 119.922,119.9218 l 0,0 c 66.437,0 119.922,-53.4851 119.922,-119.9218 l 0,-181.9501"/>
<path d="m -15596.75,5123.2202 0,-181.9501 c 0,-66.4367 53.485,-119.9218 119.922,-119.9218 l 0,0 c 66.437,0 119.922,53.4851 119.922,119.9218 0,51.0011 0,102.0021 0,153.0032 0,16.0366 -12.91,28.9469 -28.947,28.9469 l 0,0 c -16.037,0 -28.947,-12.9103 -28.947,-28.9469 0,-51.0011 0,-102.0021 0,-153.0032 0,-66.4367 53.485,-119.9218 119.922,-119.9218 l 0,0 c 66.437,0 119.922,53.4851 119.922,119.9218 l 0,181.9501"/>
</g>
<path d="m -15115.881,4821.3483 0,301.8719"/>
<path d="m -14786.835,4821.3483 -269.971,301.8719 m 0,-301.8719 269.971,301.8719"/>
<path d="m -16194.588,4821.3481 0,35.1532 m 0,266.7187 0,-181.9501 c 0,-66.4367 53.485,-119.9218 119.922,-119.9218 l 0,0 c 66.437,0 119.922,53.4851 119.922,119.9218 l 0,181.9501"/>
</g>
<g transform="translate(0 -554.36212)">
<rect width="737.785" x="1475.571" y="1106.961" height="552.599" style="fill:#dedede;color:#000"/>
</g>
<g style="stroke:#1f1f21;stroke-width:16;stroke-linecap:round;fill:none" transform="matrix(.27426 0 0 .27426 6092.8966 -534.78446)">
<g style="color:#000;stroke-linejoin:round">
<path d="m -15895.669,4821.3481 0,181.9501 c 0,66.4367 53.485,119.9218 119.922,119.9218 l 0,0 c 66.437,0 119.922,-53.4851 119.922,-119.9218 l 0,-181.9501"/>
<path d="m -15596.75,5123.2202 0,-181.9501 c 0,-66.4367 53.485,-119.9218 119.922,-119.9218 l 0,0 c 66.437,0 119.922,53.4851 119.922,119.9218 0,51.0011 0,102.0021 0,153.0032 0,16.0366 -12.91,28.9469 -28.947,28.9469 l 0,0 c -16.037,0 -28.947,-12.9103 -28.947,-28.9469 0,-51.0011 0,-102.0021 0,-153.0032 0,-66.4367 53.485,-119.9218 119.922,-119.9218 l 0,0 c 66.437,0 119.922,53.4851 119.922,119.9218 l 0,181.9501"/>
</g>
<path d="m -15115.881,4821.3483 0,301.8719"/>
<path d="m -14786.835,4821.3483 -269.971,301.8719 m 0,-301.8719 269.971,301.8719"/>
<path d="m -16194.588,4821.3481 0,35.1532 m 0,266.7187 0,-181.9501 c 0,-66.4367 53.485,-119.9218 119.922,-119.9218 l 0,0 c 66.437,0 119.922,53.4851 119.922,119.9218 l 0,181.9501"/>
</g>
<g transform="translate(0 -554.36212)">
<rect width="737.785" x="737.786" y="1106.961" height="552.599" style="fill:#f9f9f9;color:#000"/>
</g>
<g style="stroke:#1f1f21;stroke-width:16;stroke-linecap:round;fill:none" transform="matrix(.27426 0 0 .27426 5355.1112 -534.78446)">
<g style="color:#000;stroke-linejoin:round">
<path d="m -15895.669,4821.3481 0,181.9501 c 0,66.4367 53.485,119.9218 119.922,119.9218 l 0,0 c 66.437,0 119.922,-53.4851 119.922,-119.9218 l 0,-181.9501"/>
<path d="m -15596.75,5123.2202 0,-181.9501 c 0,-66.4367 53.485,-119.9218 119.922,-119.9218 l 0,0 c 66.437,0 119.922,53.4851 119.922,119.9218 0,51.0011 0,102.0021 0,153.0032 0,16.0366 -12.91,28.9469 -28.947,28.9469 l 0,0 c -16.037,0 -28.947,-12.9103 -28.947,-28.9469 0,-51.0011 0,-102.0021 0,-153.0032 0,-66.4367 53.485,-119.9218 119.922,-119.9218 l 0,0 c 66.437,0 119.922,53.4851 119.922,119.9218 l 0,181.9501"/>
</g>
<path d="m -15115.881,4821.3483 0,301.8719"/>
<path d="m -14786.835,4821.3483 -269.971,301.8719 m 0,-301.8719 269.971,301.8719"/>
<path d="m -16194.588,4821.3481 0,35.1532 m 0,266.7187 0,-181.9501 c 0,-66.4367 53.485,-119.9218 119.922,-119.9218 l 0,0 c 66.437,0 119.922,53.4851 119.922,119.9218 l 0,181.9501"/>
</g>
<g transform="translate(0 -554.36212)">
<rect width="737.785" x="2951.142" y="1106.961" height="552.599" style="fill:#d64937;color:#000"/>
</g>
<g style="stroke:#f9f9f9;fill:none;stroke-linecap:round">
<g style="stroke-width:16" transform="matrix(.27426 0 0 .27426 7568.4675 -534.78446)">
<g style="color:#000;stroke-linejoin:round">
<path d="m -15895.669,4821.3481 0,181.9501 c 0,66.4367 53.485,119.9218 119.922,119.9218 l 0,0 c 66.437,0 119.922,-53.4851 119.922,-119.9218 l 0,-181.9501"/>
<path d="m -15596.75,5123.2202 0,-181.9501 c 0,-66.4367 53.485,-119.9218 119.922,-119.9218 l 0,0 c 66.437,0 119.922,53.4851 119.922,119.9218 0,51.0011 0,102.0021 0,153.0032 0,16.0366 -12.91,28.9469 -28.947,28.9469 l 0,0 c -16.037,0 -28.947,-12.9103 -28.947,-28.9469 0,-51.0011 0,-102.0021 0,-153.0032 0,-66.4367 53.485,-119.9218 119.922,-119.9218 l 0,0 c 66.437,0 119.922,53.4851 119.922,119.9218 l 0,181.9501"/>
</g>
<path d="m -15115.881,4821.3483 0,301.8719"/>
<path d="m -14786.835,4821.3483 -269.971,301.8719 m 0,-301.8719 269.971,301.8719"/>
<path d="m -16194.588,4821.3481 0,35.1532 m 0,266.7187 0,-181.9501 c 0,-66.4367 53.485,-119.9218 119.922,-119.9218 l 0,0 c 66.437,0 119.922,53.4851 119.922,119.9218 l 0,181.9501"/>
</g>
<g style="stroke-width:4.388" transform="translate(0 -554.36212)">
<g style="color:#000;stroke-linejoin:round">
<path d="m 1645.4763,1859.5598 0,49.9011 c 0,18.2207 14.6687,32.8893 32.8895,32.8893 l 0,0 c 18.2208,0 32.8894,-14.6686 32.8894,-32.8893 l 0,-49.9011"/>
<path d="m 1815.3818,1942.3503 0,-49.9011 c 0,-18.2207 14.6686,-32.8893 32.8894,-32.8893 l 0,0 c 18.2208,0 32.8895,14.6686 32.8895,32.8893 0,13.9874 0,27.9748 0,41.9622 0,4.3981 -3.5407,7.9389 -7.939,7.9389 l 0,0 c -4.3982,0 -7.9389,-3.5408 -7.9389,-7.9389 0,-13.9874 0,-27.9748 0,-41.9622 0,-18.2207 14.6687,-32.8893 32.8895,-32.8893 l 0,0 c 18.2208,0 32.8894,14.6686 32.8894,32.8893 l 0,49.9011"/>
</g>
<path d="m 2035.1883,1859.5599 0,82.7904"/>
<path d="m 2213.3563,1859.5598 -74.0414,82.7904 m 0,-82.7904 74.0414,82.7904"/>
<path d="m 1475.5709,1859.5598 0,9.641 m 0,73.1494 0,-49.901 c 0,-18.2207 14.6686,-32.8894 32.8894,-32.8894 l 0,0 c 18.2208,0 32.8894,14.6687 32.8894,32.8894 l 0,49.901"/>
</g>
</g>
</svg>
